# xmcd
#
# Track frame offsets: 
#        150
#        15223
#        26456
#        41343
#        55993
#        70387
#        81268
#        96942
#        114015
#        124402
#        138014
#        152255
#        165624
#        181600
#        194373
#        208898
#        221584
#        235929
#        248806
#        265289
#
# Disc length: 3716 seconds
#
# Revision: 0
# Processed by: cddbd v1.5.2PL0 Copyright (c) Steve Scherf et al.
# Submitted via: ExactAudioCopy v1.3
#
DISCID=060e8214
DTITLE=Bo Porter - Tried and True
DYEAR=2017
DGENRE=Country
TTITLE0=It don't Matter
TTITLE1=Speak your Mind
TTITLE2=Mexican Lettuce
TTITLE3=Work with me Baby
TTITLE4=Take my Advice
TTITLE5=Don't do it
TTITLE6=It aint't over yet
TTITLE7=Rattle your Brain
TTITLE8=Heart full of Love
TTITLE9=I didn't see that comin'
TTITLE10=Real good Day
TTITLE11=Take me back to Luckenbach
TTITLE12=Bury me on Sunday
TTITLE13=Ain't I been good to you Baby
TTITLE14=Saddle up and ride
TTITLE15=Drinkin' Money
TTITLE16=She likes living in Texas
TTITLE17=It ain't like my Baby
TTITLE18=Mama came to Texas
TTITLE19=I was born like this
EXTD=
EXTT0=
EXTT1=
EXTT2=
EXTT3=
EXTT4=
EXTT5=
EXTT6=
EXTT7=
EXTT8=
EXTT9=
EXTT10=
EXTT11=
EXTT12=
EXTT13=
EXTT14=
EXTT15=
EXTT16=
EXTT17=
EXTT18=
EXTT19=
PLAYORDER=
